<?xml version="1.0" encoding="UTF-8" standalone="no"?>
<!-- Created with Inkscape (http://www.inkscape.org/) -->

<svg
   width="483.00006"
   height="528.47412"
   viewBox="0 0 483.00006 528.47412"
   version="1.1"
   id="svg1"
   xml:space="preserve"
   xmlns:xlink="http://www.w3.org/1999/xlink"
   xmlns="http://www.w3.org/2000/svg"
   xmlns:svg="http://www.w3.org/2000/svg"><defs
     id="defs1"><linearGradient
       id="linearGradient4070-6-1-1"><stop
         style="stop-color:#a3a3a3;stop-opacity:1;"
         offset="0"
         id="stop4072-2-3-7" /><stop
         style="stop-color:#b0b0b0;stop-opacity:1;"
         offset="0.14285725"
         id="stop4074-3-2-4" /><stop
         id="stop4076-8-1-0"
         offset="0.32142863"
         style="stop-color:#d1d1d1;stop-opacity:1;" /><stop
         style="stop-color:#bdbdbd;stop-opacity:1;"
         offset="0.5"
         id="stop4078-2-6-9" /><stop
         id="stop4080-6-3-4"
         offset="0.75"
         style="stop-color:#e5e5e5;stop-opacity:1;" /><stop
         style="stop-color:#cccccc;stop-opacity:1;"
         offset="0.875"
         id="stop4082-2-8-8" /><stop
         id="stop4084-7-3-8"
         offset="1"
         style="stop-color:#cccccc;stop-opacity:1;" /></linearGradient><linearGradient
       gradientTransform="matrix(-1,0,0,1,-885.80856,-1225.6071)"
       gradientUnits="userSpaceOnUse"
       y2="1521.8723"
       x2="-1157.1014"
       y1="1521.8723"
       x1="-1418.8549"
       id="linearGradient15804"
       xlink:href="#linearGradient4070-6-1-1" /><linearGradient
       id="linearGradient15717"><stop
         id="stop15719"
         offset="0"
         style="stop-color:#ffffff;stop-opacity:1;" /><stop
         id="stop15721"
         offset="1"
         style="stop-color:#ffffff;stop-opacity:0;" /></linearGradient><linearGradient
       gradientTransform="matrix(-1,0,0,1,-1037.7645,-1225.6071)"
       gradientUnits="userSpaceOnUse"
       y2="1605.3918"
       x2="-1343.4023"
       y1="1605.3918"
       x1="-1384.5096"
       id="linearGradient15723"
       xlink:href="#linearGradient15717" /><linearGradient
       id="linearGradient23124-2"><stop
         style="stop-color:#cc992d;stop-opacity:1;"
         offset="0"
         id="stop23126-4" /><stop
         style="stop-color:#e1a832;stop-opacity:1;"
         offset="0.14285725"
         id="stop23128-5" /><stop
         id="stop23130-5"
         offset="0.32142863"
         style="stop-color:#e5cf5c;stop-opacity:1;" /><stop
         style="stop-color:#e5c547;stop-opacity:1;"
         offset="0.5"
         id="stop23132-1" /><stop
         id="stop23134-7"
         offset="0.75"
         style="stop-color:#ffffa3;stop-opacity:1;" /><stop
         style="stop-color:#ffd94d;stop-opacity:1;"
         offset="0.875"
         id="stop23136-1" /><stop
         id="stop23138-1"
         offset="1"
         style="stop-color:#ffdb4e;stop-opacity:1;" /></linearGradient><linearGradient
       xlink:href="#linearGradient23124-2"
       id="linearGradient15856"
       gradientUnits="userSpaceOnUse"
       gradientTransform="matrix(-1,0,0,1,-225.58276,-1956.7306)"
       x1="-649.14478"
       y1="2202.9722"
       x2="-483.65906"
       y2="2202.9722" /><linearGradient
       gradientTransform="matrix(-1,0,0,1,-1477.0412,-1444.077)"
       gradientUnits="userSpaceOnUse"
       y2="1821.4382"
       x2="-1792.9811"
       y1="1821.4382"
       x1="-1947.8149"
       id="linearGradient16219"
       xlink:href="#linearGradient23124-2" /><radialGradient
       gradientUnits="userSpaceOnUse"
       gradientTransform="matrix(1,0,0,1.542045,20.639244,-543.7453)"
       r="8.0712862"
       fy="763.5155"
       fx="-781.42859"
       cy="763.5155"
       cx="-781.42859"
       id="radialGradient16253"
       xlink:href="#linearGradient15717" /><linearGradient
       xlink:href="#linearGradient23124-2"
       id="linearGradient6358"
       x1="109.64665"
       y1="258.43027"
       x2="255.70947"
       y2="258.43027"
       gradientUnits="userSpaceOnUse" /><linearGradient
       xlink:href="#linearGradient23124-2"
       id="linearGradient6366"
       x1="255.49524"
       y1="264.07983"
       x2="401.55807"
       y2="264.07983"
       gradientUnits="userSpaceOnUse" /><linearGradient
       xlink:href="#linearGradient23124-2"
       id="linearGradient6374"
       x1="400.76596"
       y1="266.46378"
       x2="546.82892"
       y2="266.46378"
       gradientUnits="userSpaceOnUse" /><linearGradient
       xlink:href="#linearGradient23124-2"
       id="linearGradient6382"
       x1="184.3121"
       y1="439.10098"
       x2="330.37512"
       y2="439.10098"
       gradientUnits="userSpaceOnUse" /><linearGradient
       xlink:href="#linearGradient23124-2"
       id="linearGradient6390"
       x1="329.58276"
       y1="441.48483"
       x2="475.6459"
       y2="441.48483"
       gradientUnits="userSpaceOnUse" /><linearGradient
       xlink:href="#linearGradient23124-2"
       id="linearGradient6398"
       x1="251.84924"
       y1="593.68329"
       x2="397.91238"
       y2="593.68329"
       gradientUnits="userSpaceOnUse" /><linearGradient
       gradientUnits="userSpaceOnUse"
       y2="233.30521"
       x2="165.66711"
       y1="233.30521"
       x1="61.345173"
       id="linearGradient4989"
       xlink:href="#linearGradient4070-6-1-1" /><linearGradient
       gradientUnits="userSpaceOnUse"
       y2="478.0686"
       x2="585.06146"
       y1="478.0686"
       x1="135.58722"
       id="linearGradient12295"
       xlink:href="#linearGradient4070-6-1-1" /><style
       id="style2">.cls-1{fill:#262626;stroke-width:3px;}.cls-1,.cls-4,.cls-5{stroke:#000;}.cls-2{fill:#c11f25;}.cls-3{fill:#fff;}.cls-4,.cls-5{fill:none;}.cls-5{stroke-miterlimit:10;}</style><linearGradient
       id="linearGradient10229"><stop
         style="stop-color:#ff0000;stop-opacity:1;"
         offset="0"
         id="stop10227" /></linearGradient><radialGradient
       id="rg"
       gradientUnits="userSpaceOnUse"
       cx="220"
       cy="220"
       r="405"><stop
         style="stop-color:#fff;stop-opacity:.3"
         offset="0"
         id="stop21363" /><stop
         style="stop-color:#fff;stop-opacity:.2"
         offset=".2"
         id="stop21365" /><stop
         style="stop-color:#666;stop-opacity:.1"
         offset=".6"
         id="stop21367" /><stop
         style="stop-color:#000;stop-opacity:.13"
         offset="1"
         id="stop21369" /></radialGradient><clipPath
       id="clip-shield"><path
         id="shield"
         d="m 1.5,1.5 v 258.9 c 0,286 298.5,398 298.5,398 0,0 298.5,-112 298.5,-398 V 1.5 Z" /></clipPath><radialGradient
       id="rg-6"
       gradientUnits="userSpaceOnUse"
       cx="220"
       cy="220"
       r="405"
       gradientTransform="matrix(0.80510068,0,0,0.80302287,0.0498,-0.642919)"><stop
         style="stop-color:#ffffff;stop-opacity:.3"
         offset="0"
         id="stop753" /><stop
         style="stop-color:#ffffff;stop-opacity:.2"
         offset=".2"
         id="stop755" /><stop
         style="stop-color:#666666;stop-opacity:.1"
         offset=".6"
         id="stop757" /><stop
         style="stop-color:#000000;stop-opacity:.13"
         offset="1"
         id="stop759" /></radialGradient></defs><g
     id="g1"
     transform="translate(0,0.24296297)"><g
       id="Layer_2"
       data-name="Layer 2"><path
         class="cls-1"
         d="M 923,121.76 V 327.6 c 0.008,12.70109 -0.75306,25.39102 -2.28,38 -0.11,0.93 -0.24,1.86 -0.36,2.79 -0.12,0.93 -0.24,1.86 -0.39,2.79 -0.46667,3.36667 -1.00333,6.7 -1.61,10 -0.07,0.44 -0.15,0.87 -0.23,1.31 -0.15,0.8 -0.29,1.6 -0.45,2.39 -0.16,0.79 -0.34,1.8 -0.51,2.69 l -0.45,2.22 -0.24,1.16 c -0.15,0.71 -0.3,1.44 -0.47,2.15 -0.53333,2.36667 -1.07,4.7 -1.61,7 l -0.58,2.32 -0.52,2 c -1.01333,3.92 -2.10333,7.79 -3.27,11.61 -0.29,1 -0.59,1.94 -0.9,2.92 l -0.6,1.88 c -0.19,0.63 -0.39,1.25 -0.6,1.86 l -1.1,3.26 c -0.37,1.09 -0.68,2 -1,3 -0.47,1.28 -0.92,2.55 -1.39,3.81 -0.36,1 -0.73,2 -1.11,3 l -0.19,0.49 c -0.43,1.14 -0.87,2.25 -1.32,3.37 -0.45,1.12 -0.87,2.16 -1.32,3.19 -0.0504,0.14393 -0.11051,0.28426 -0.18,0.42 -0.4,1 -0.8,2 -1.25,3 -0.45,1 -0.75,1.75 -1.13,2.62 l -0.66,1.49 c -0.47,1.07 -0.95,2.12 -1.44,3.15 -0.49,1.03 -0.9,2 -1.36,2.93 l -1,2.12 c -0.3,0.63 -0.6,1.25 -0.91,1.88 -0.63,1.32 -1.31,2.64 -2,4 -1.68667,3.33333 -3.41667,6.59 -5.19,9.77 l -2,3.57 -0.11,0.21 c -1.42,2.47333 -2.86333,4.91667 -4.33,7.33 -0.71,1.2 -1.46,2.39 -2.18,3.54 -0.1,0.16 -0.19,0.31 -0.3,0.46 -0.55,0.89 -1.12,1.78 -1.69,2.66 l -0.66,1 c -0.65,1 -1.31,2 -2,3 l -0.13,0.18 c -0.66,1 -1.32,2 -2,3 l -0.45,0.67 c -1.50667,2.18667 -3.02,4.34 -4.54,6.46 l -0.31,0.42 c -0.8,1.07 -1.54,2.14 -2.31,3.19 -0.77,1.05 -1.66,2.23 -2.5,3.32 -1.52667,2 -3.06333,4 -4.61,6 l -0.8,1 c -0.73,0.93 -1.48,1.85 -2.22,2.76 l -2.24,2.65 -0.57,0.69 -2.43,2.8 c -1.88667,2.21333 -3.79333,4.39 -5.72,6.53 -0.75,0.85 -1.52,1.69 -2.29,2.51 l -2.22,2.39 c -2,2.12667 -3.97667,4.20667 -5.93,6.24 -1.84,1.88667 -3.68333,3.75 -5.53,5.59 -0.91,0.91 -1.84,1.82 -2.76,2.71 -0.92,0.89 -1.85,1.78 -2.78,2.67 l -2.28,2.11 c -0.68,0.65 -1.36,1.28 -2.05,1.91 -19.17147,17.58397 -39.836,33.46716 -61.76,47.47 -0.86,0.55 -1.73,1.1 -2.58,1.6 -4.28,2.71333 -8.43333,5.25667 -12.46,7.63 l -2.41,1.4 -2.36,1.36 -2.34,1.35 -2.22,1.28 c -8.35,4.68 -15.91,8.59 -22.38,11.76 l -1.61,0.8 c -10.63,5.15 -18.11,8.22 -21,9.35 l -0.42,0.18 -0.61,0.23 -0.14,0.06 h -0.08 l -0.23,-0.1 h -0.21 l -1.07,-0.42 -0.55,-0.23 c -0.87,-0.34 -2,-0.8 -3.36,-1.38 l -0.47,-0.18 c -1.76,-0.8 -3.88,-1.67 -6.33,-2.77 l -1.39,-0.61 c -13.58522,-6.19286 -26.8488,-13.06829 -39.74,-20.6 -0.8,-0.45 -1.61,-0.92 -2.36,-1.38 -15.48461,-9.14096 -30.43553,-19.15721 -44.78,-30 l -2.62,-2 c -1,-0.75 -2,-1.52 -2.95,-2.29 l -2.81,-2.21 c -6.19,-4.92 -12.43,-10.15 -18.64,-15.69 L 554.08,565 c -1.53333,-1.36667 -3.06333,-2.76667 -4.59,-4.2 l -1.67,-1.57 -1.82,-1.69 -2,-1.94 c -1.12,-1.07 -2.24,-2.16 -3.34,-3.26 -0.84,-0.8 -1.69,-1.67 -2.52,-2.51 l -0.24,-0.26 c -0.83333,-0.83333 -1.66667,-1.67 -2.5,-2.51 -0.66,-0.68 -1.32,-1.36 -2,-2 l -2,-2.07 -0.13,-0.15 -2.1,-2.24 c -2.24,-2.40667 -4.46,-4.86 -6.66,-7.36 -0.68,-0.8 -1.36,-1.55 -2,-2.35 -0.57,-0.65 -1.12,-1.28 -1.66,-1.94 l -2,-2.39 c -2.84,-3.40667 -5.63667,-6.9 -8.39,-10.48 -0.75333,-0.96667 -1.5,-1.94 -2.24,-2.92 -1.89,-2.47 -3.73,-5 -5.57,-7.55 l -1.68,-2.39 c -0.13,-0.16 -0.24,-0.34 -0.36,-0.5 -0.59,-0.85 -1.19,-1.7 -1.77,-2.55 -0.95,-1.38 -1.89,-2.77 -2.82,-4.17 -0.74,-1.09333 -1.46667,-2.19667 -2.18,-3.31 l -0.15,-0.24 -2.22,-3.47 c -0.07,-0.13 -0.15,-0.24 -0.22,-0.37 -0.71,-1.14 -1.41,-2.27 -2.1,-3.4 -0.69,-1.13 -1.49,-2.46 -2.21,-3.7 -0.72,-1.24 -1.44,-2.39 -2.13,-3.67 -3.06667,-5.33333 -5.99,-10.82333 -8.77,-16.47 -0.35,-0.69 -0.69,-1.38 -1,-2.08 -0.22,-0.44 -0.44,-0.89 -0.65,-1.35 -0.43,-0.87 -0.8,-1.75 -1.25,-2.63 -0.4244,-0.80358 -0.80822,-1.62795 -1.15,-2.47 l -0.23,-0.48 c -0.26,-0.58 -0.52,-1.16 -0.8,-1.75 l -0.26,-0.57 c -0.26,-0.58 -0.52,-1.18 -0.8,-1.77 -0.96,-2.17333 -1.88667,-4.36667 -2.78,-6.58 -0.42,-1 -0.8,-2 -1.23,-3.07 -0.1,-0.26 -0.21,-0.53 -0.31,-0.8 -0.4,-1 -0.8,-2 -1.16,-3 -0.36,-1 -0.68,-1.82 -1,-2.74 l -0.23,-0.65 c -0.18,-0.45 -0.34,-0.91 -0.5,-1.36 -0.66667,-1.79333 -1.29667,-3.60667 -1.89,-5.44 -0.21,-0.6 -0.4,-1.21 -0.6,-1.8 -0.26,-0.8 -0.51,-1.54 -0.75,-2.31 -0.14,-0.42 -0.26,-0.8 -0.39,-1.22 -0.26,-0.8 -0.5,-1.6 -0.75,-2.39 -0.31,-1 -0.61,-2.06 -0.92,-3.1 -0.18,-0.65 -0.39,-1.28 -0.57,-2 -0.37,-1.28 -0.74,-2.58 -1.08,-3.89 -0.19,-0.68 -0.37,-1.35 -0.55,-2 -0.13,-0.5 -0.26,-1 -0.39,-1.51 -0.32,-1.22 -0.63,-2.46 -0.92,-3.7 -0.18,-0.7 -0.35,-1.4 -0.52,-2.11 -0.07,-0.29 -0.13,-0.57 -0.19,-0.85 -0.37,-1.55 -0.71,-3.11 -1.07,-4.69 -0.26,-1.16 -0.5,-2.33 -0.74,-3.5 -0.14,-0.71 -0.29,-1.43 -0.43,-2.14 -0.14,-0.71 -0.32,-1.6 -0.47,-2.45 -0.0155,-0.15994 -0.049,-0.31761 -0.1,-0.47 -0.15,-0.8 -0.3,-1.64 -0.45,-2.48 -0.15,-0.84 -0.31,-1.84 -0.47,-2.77 -0.16,-0.93 -0.3,-1.8 -0.45,-2.71 -0.58,-3.68 -1.1,-7.40333 -1.56,-11.17 -1.56776,-12.53648 -2.37923,-25.15598 -2.43,-37.79 V 121.76 Z"
         transform="translate(-441.5,-120.26)"
         id="path8"
         style="fill:#21829a;fill-opacity:1" /></g><g
       id="layer1"
       transform="matrix(-0.57895393,0.07294434,0.07294434,0.57895393,439.75478,-140.16704)"
       style="stroke-width:1.71369"><path
         style="fill:#d6b844;fill-opacity:1;stroke:none;stroke-width:1.71369"
         d="m 97.5049,498.74119 -1.3203,4.3381 c -6.7362,3.9182 -14.3691,12.59 -2.2634,23.0112 l 19.0502,67.1473 -3.395,0.1886 -1.509,-0.5658 h -2.2634 l -0.5658,1.1317 h -3.3951 c -6.6488,-1.5347 -8.5228,-0.465 -7.356,2.2634 3.3252,7.5342 7.0928,7.7698 11.1283,3.5837 l 5.4699,-1.8862 6.9788,-0.1886 c 4.6539,1.0674 9.8164,1.6263 12.4486,4.7154 6.9206,3.105 11.2253,0.6894 9.6195,-1.8861 6.8831,-1.4452 3.7832,-5.3539 3.2064,-6.9788 8.7449,-0.1246 0.2014,-10.9237 -1.6975,-5.6585 l -5.8471,-0.1886 c -5.4009,-1.2287 -6.4845,0.1331 -6.6016,2.0747 l -7.5446,0.5659 -0.1886,-3.0179 -1.5561,-2.2634 0.1886,-2.4048 -1.8862,-2.2634 v -2.4992 l -1.8861,-2.5463 0.1886,-2.8764 -2.1219,-2.2634 0.4243,-2.0276 -1.8861,-3.3008 0.4715,-3.2536 -2.1219,-1.3203 0.1415,-4.9984 -2.7821,-1.9804 1.226,-3.4423 -2.3106,-1.6504 0.9903,-2.8763 -0.9431,-2.7821 -2.3577,-0.3773 0.7073,-4.2438 -2.1219,-1.8862 0.2829,-3.5365 -1.9805,-1.839 0.6602,-3.5838 4.537,-25.9439 z"
         id="path4411" /><path
         style="fill:#2c3031;fill-opacity:1;stroke:none;stroke-width:1.71369"
         d="m 143.1884,593.72439 c 5.0886,0.9345 4.5057,9.1807 -2.4673,11.3366 4.024,-2.7424 2.2468,-5.9051 -0.6669,-5.8683 -0.8703,-2.901 1.2061,-5.3441 3.1342,-5.4683 z"
         id="path4433-7-7" /><path
         style="fill:#2c3031;fill-opacity:1;stroke:none;stroke-width:1.71369"
         d="m 95.9866,596.79199 c -5.0885,0.9344 -4.5056,9.1806 2.4674,11.3366 -4.0241,-2.7425 -2.2468,-5.9052 0.6669,-5.8684 0.8703,-2.9009 -1.2061,-5.3441 -3.1343,-5.4682 z"
         id="path4433" /><path
         style="fill:#2c3031;fill-opacity:1;stroke:none;stroke-width:1.71369"
         d="m 147.2563,587.78939 c 5.0886,0.9345 4.5056,9.1806 -2.4674,11.3366 4.0241,-2.7425 2.2469,-5.9051 -0.6668,-5.8684 -0.8704,-2.9009 1.206,-5.344 3.1342,-5.4682 z"
         id="path4433-7" /><path
         style="fill:#2c3031;fill-opacity:1;stroke:none;stroke-width:1.71369"
         d="m 138.2481,599.03689 c 4.8009,1.9282 2.5889,9.8936 -4.6737,10.619 4.4893,-1.8869 3.3769,-5.34 0.5141,-5.8837 -0.2758,-3.0161 2.2453,-4.9972 4.1596,-4.7353 z"
         id="path4433-7-8" /><path
         style="fill:#2c3031;fill-opacity:1;stroke:none;stroke-width:1.71369"
         d="m 107.1899,500.96439 -5.0682,29.8419 1.9673,1.7005 -0.4002,3.7011 2.4007,1.9005 -0.6668,4.2679 2.1673,0.4335 0.9002,2.6007 -0.8669,2.8675 2.3674,1.6005 -1.3671,3.5343 2.8341,2.0006 -0.1,4.8014 2.2007,1.4004 -0.6669,3.401 1.8672,3.2009 -0.3334,2.1006 2.1339,2.3006 -0.1,3.0676 1.8005,2.4007 -0.1,2.334 1.8338,2.4007 -0.1,2.3006 1.7672,2.7008 -0.2334,2.7008 -4.0679,-1.167 3.301,-1.7672 -1.4338,-2.0672 -3.1008,0.1333 2.6674,-1.9005 -0.6669,-1.9672 -3.2342,-0.4002 2.1339,-1.6671 0.1,-1.5338 -1.167,-0.9336 -2.8674,-0.3334 2.1339,-0.7002 0.033,-2.9342 -3.0009,0.6669 2.4674,-1.7339 -1.0336,-1.0003 -2.5341,-0.3 2.234,-1.2337 0.067,-1.5671 -0.8669,-1.5005 -2.4674,-0.4001 1.067,-1.0336 0.4334,-2.4674 -1.1003,-0.9336 -2.9008,0.1 2.1673,-1.3003 0.033,-3.3677 -3.2009,1.4004 2.4673,-2.534 -0.7335,-1.167 -2.8342,-0.6336 1.6672,-1.0336 0.4668,-2.4007 -2.7341,0.2668 2.5007,-1.5672 -0.7669,-0.6335 -2.9008,-1.1003 2.7674,-0.5335 0.2334,-1.5004 -3.9344,-0.5002 2.8008,-1.267 -0.9003,-0.6668 -2.3673,-0.3001 1.9005,-1.2671 -0.1667,-3.4676 -3.2009,-0.4668 1.3003,-1.7005 0.7669,-2.134 -3.1675,0.5002 2.7007,-2.234 -1.267,-0.6669 -2.3673,-1.367 2.1006,-0.5668 c -0.3881,-11.0883 4.0725,-30.6379 -4.5013,-27.4413 l 0.9336,-3.3343 z"
         id="path4512" /><path
         style="fill:#2c3031;fill-opacity:1;stroke:none;stroke-width:1.71369"
         d="m 96.0533,509.16679 c -4.1532,2.6709 -5.966,6.1821 -3.2009,11.3366 -6.987,-2.3783 -3.2894,-13.1156 3.2009,-11.3366 z"
         id="path4514" /><ellipse
         style="fill:#bba13b;fill-opacity:1;fill-rule:evenodd;stroke:none;stroke-width:1.71369;stroke-opacity:1"
         id="path4520"
         transform="translate(18.8718,183.33929)"
         cx="171.38264"
         cy="289.13733"
         rx="14.137401"
         ry="14.870945" /><path
         style="fill:#d6b844;fill-opacity:1;stroke:none;stroke-width:1.71369"
         d="m 135.0931,479.72729 4.1346,16.9382 c -2.6587,11.1686 10.6172,20.5197 14.2707,0.1334 l 20.9394,-25.0739 c 2.8374,-0.5274 9.3832,-0.6469 7.4688,-7.202 0.3574,-1.3775 0.9052,-2.6788 3.7344,-3.0676 l 3.0676,-3.8678 2.534,3.0676 c 3.3015,4.1764 6.111,10.8826 11.0699,6.5352 1.0793,-1.2003 1.8243,-2.4007 0.6668,-3.601 7.1949,-3.2218 1.6951,-7.1364 -1.3337,-5.3349 -1.2402,-1.6169 -1.8853,-3.7298 -4.5197,-4.185 -0.7583,0.099 -2.7229,-1.1584 -2.6824,-2.4836 -3.8142,-7.5703 -13.822,-9.7658 -13.4705,-0.9336 l -3.2009,3.601 c -2.4332,0.1839 -2.8603,1.3707 -2.8008,2.8009 -1.6254,-0.055 -1.6676,1.275 -2.4007,2.0005 -1.6386,-0.027 -2.1284,1.3504 -2.6675,2.6675 -1.5181,0.5269 -2.5388,1.5512 -2.8008,3.3343 -1.4622,0.3868 -2.234,2.0393 -3.2009,3.3342 -1.1942,0.1659 -1.9134,1.6167 -2.534,3.3343 -1.2473,0.5492 -2.3843,1.2989 -2.6675,3.6011 -1.2659,1.7127 -3.3505,2.6067 -3.7344,5.2015 -1.5884,1.0538 -3.2593,2.0457 -3.4676,4.1345 l -4.8014,6.9353 -0.9336,-13.7373 c -4.1842,-0.7583 -8.2334,-1.2197 -10.6698,1.8672 z"
         id="path4546" /><path
         style="fill:#2c3031;fill-opacity:1;stroke:none;stroke-width:1.71369"
         d="m 184.14785,452.36689 -0.1334,3.4676 -5.935,7.5355 -3.6011,1.4671 -0.6668,1.5338 0.2,1.7338 0.7336,1.2004 1.8672,2.6674 h -2.2673 l -20.7539,24.5789 c -1.9571,6.4888 -3.5815,13.5805 -9.4308,13.0145 3.2747,-1.9629 6.0656,-4.9817 6.6015,-12.9202 l 3.1122,-7.5446 1.5089,-0.7545 0.4716,-2.1691 -0.1886,-1.8861 3.2064,-0.2829 0.6602,-1.509 0.094,-0.943 -0.5659,-2.735 2.8293,1.1317 1.8861,-1.6032 -0.3772,-1.7919 -1.1317,-1.4146 3.1122,-0.094 2.0748,-1.3203 -0.8488,-2.5463 2.1691,0.2829 v -2.5463 l -0.5659,-1.226 3.0179,-0.6602 0.094,-1.6032 0.4715,-1.226 2.3577,-0.9431 0.6602,-1.7918 1.3203,-0.4716 2.2634,-1.7918 3.1121,-0.5659 1.3204,-2.8292 z"
         id="path4548" /><path
         style="fill:none;stroke:#2c3031;stroke-width:1.71369px;stroke-linecap:butt;stroke-linejoin:miter;stroke-opacity:1"
         d="m 191.576,453.65319 0.867,3.0675 3.4676,2.4007 2.8675,1.3337 4.3346,3.0676"
         id="path4550" /><path
         style="fill:#2c3031;fill-opacity:1;stroke:none;stroke-width:1.71369"
         d="m 139.1328,477.36419 c 3.6858,3.8028 6.358,9.488 4.8097,23.0112 1.5871,-1.6433 2.0116,-5.0303 2.6407,-8.1105 l -0.6602,-14.2405 z"
         id="path4632" /><path
         style="fill:#2c3031;fill-opacity:1;stroke:none;stroke-width:1.71369"
         d="m 206.0418,459.69189 c 4.8009,1.9282 2.5889,9.8935 -4.6737,10.619 4.4893,-1.887 3.3769,-5.34 0.5141,-5.8837 -0.2758,-3.0162 2.2452,-4.9973 4.1596,-4.7353 z"
         id="path4433-7-8-9" /><path
         style="fill:#2c3031;fill-opacity:1;stroke:none;stroke-width:1.71369"
         d="m 200.5735,462.95949 c 4.8009,1.9282 2.5889,9.8935 -4.6736,10.619 4.4892,-1.887 3.3768,-5.34 0.5141,-5.8837 -0.2758,-3.0161 2.2452,-4.9973 4.1595,-4.7353 z"
         id="path4433-7-8-96" /><path
         style="fill:#2c3031;fill-opacity:1;stroke:none;stroke-width:1.71369"
         d="m 175.3522,467.26399 c -3.2742,4.0058 2.5073,9.9145 9.2182,7.0449 -4.8425,0.5139 -5.5347,-3.0472 -3.2898,-4.905 -1.2141,-2.7747 -4.3782,-3.2932 -5.9284,-2.1399 z"
         id="path4433-7-8-8" /><path
         style="fill:#d6b844;fill-opacity:1;stroke:none;stroke-width:1.71369"
         d="m 120.9543,283.63269 38.4777,26.7834 -39.798,-9.6194 c -3.0756,-9.237 -1.0329,-13.3558 1.3203,-17.164 z"
         id="path4668" /><path
         style="fill:#2c3031;fill-opacity:1;stroke:none;stroke-width:1.71369"
         d="m 155.6942,309.45639 -31.0021,-12.9812 17.0966,6.0823 z"
         id="path4670" /><path
         style="fill:#d6b844;fill-opacity:1;stroke:none;stroke-width:1.71369"
         d="m 120.9543,283.25539 c 0.9958,2.9186 2.9631,5.7801 1.1317,8.865 -1.0372,1.5227 -2.5626,4.0479 0.7544,9.1479 -6.0095,1.6561 -10.391,4.1217 -25.9347,1.0373 6.8812,16.5091 28.9626,31.1182 46.3231,46.3174 15.3768,13.7639 30.1764,27.8301 24.8795,52.4232 l -3.3008,-4.9041 c 1.3116,6.0112 1.2974,11.6245 0.094,16.8812 l -3.3008,-6.9788 c -0.1458,4.6814 -0.8346,9.0526 -2.7349,12.7316 l -2.1691,-5.7528 c 0.7083,7.2931 -6.0824,14.5863 -11.034,21.8794 0.984,16.3257 3.2521,36.1826 0.4715,42.1557 -3.4256,1.045 -6.902,2.0588 -8.7706,4.0553 -8.8312,-3.0732 -11.0131,-12.3799 -11.8828,-22.9169 -8.389,13.8668 -15.6489,27.9454 -18.396,42.87 l -10.5364,-2.0006 c -0.2959,-7.7736 -1.3491,-13.6544 -3.0675,-17.8718 l -19.8724,16.5381 c -12.048,-19.5897 -23.2667,-38.9112 -13.6039,-51.4814 2.9518,-8.0023 8.7873,-16.0047 14.1374,-24.007 9.0898,-15.8074 28.8763,-30.2542 49.881,-44.5461 1.1302,-16.0278 -9.4845,-23.4015 -17.3383,-32.8094 -23.0594,-21.3272 -43.6326,-42.4473 -24.8072,-60.284 10.2696,-11.4733 23.1175,-12.6334 39.0765,-1.3492 z"
         id="path4674" /><path
         style="fill:#d6b844;fill-opacity:1;stroke:none;stroke-width:1.71369"
         d="m 69.6273,456.03519 c -3.6769,22.8588 -6.474,45.4872 14.7913,61.814 -1.8364,-4.1154 -4.2551,-6.7765 -2.3878,-20.1407 -0.5938,-23.7673 -7.6821,-28.4227 -11.9983,-41.2356 l -0.3097,0.3679 0.5448,-0.9919 z"
         id="path4676" /><path
         style="fill:#2c3031;fill-opacity:1;stroke:none;stroke-width:1.71369"
         d="m 63.8442,474.26949 c -5.1168,22.5801 -9.341,44.986 10.8479,62.6264 -1.5721,-4.2234 -3.8175,-7.0323 -1.1078,-20.2514 0.9122,-23.7572 -5.8671,-28.8521 -9.3635,-41.9125 l -0.3323,0.3475 0.6065,-0.9554 z"
         id="path4676-4" /><path
         style="fill:#2c3031;fill-opacity:1;stroke:none;stroke-width:1.71369"
         d="m 54.7264,473.98799 c -6.4801,22.2272 -12.0587,44.3348 7.0205,63.17 -1.3125,-4.3111 -3.3829,-7.2513 0.1254,-20.2813 2.3549,-23.6578 -4.1022,-29.1554 -6.7981,-42.4042 l -0.3529,0.3267 0.6635,-0.9168 z"
         id="path4676-9" /><path
         style="fill:#d6b844;fill-opacity:1;stroke:none;stroke-width:1.71369"
         d="m 51.6948,470.68479 c -9.9168,20.9213 -18.9246,41.8671 -3.0676,63.485 -0.6134,-4.4646 -2.1924,-7.6955 3.3343,-20.0058 6.0701,-22.9868 0.5647,-29.4372 0,-42.9457 l -0.4001,0.2668 0.8002,-0.8003 z"
         id="path4676-3" /><path
         style="fill:#d6b844;fill-opacity:1;stroke:none;stroke-width:1.71369"
         d="m 69.28325,455.88224 c -11.7509,19.9489 -22.5987,40.0037 -8.7417,62.955 -0.2111,-4.5015 -1.4943,-7.8609 5.1128,-19.6267 8.1047,-22.3506 3.1992,-29.2682 3.8468,-42.773 l -0.4224,0.2298 0.8687,-0.7253 z"
         id="path4676-38" /><path
         style="fill:#d6b844;fill-opacity:1;stroke:none;stroke-width:1.71369"
         d="m 70.7948,444.85559 c -16.6986,16.0375 -32.556,32.4207 -25.4071,58.26 1.0116,-4.3915 0.6826,-7.9725 10.2198,-17.5187 13.8358,-19.3342 10.9792,-27.3189 15.2472,-40.1479 l -0.4687,0.1073 1.0322,-0.464 z"
         id="path4676-0" /><path
         style="fill:#d6b844;fill-opacity:1;stroke:none;stroke-width:1.71369"
         d="m 59.8378,449.07009 c -16.1468,16.5929 -31.4413,33.5028 -23.4229,59.0857 0.8625,-4.4232 0.4126,-7.991 9.6217,-17.8542 13.1742,-19.7908 10.0492,-27.6745 13.8811,-40.6404 l -0.4648,0.1231 1.0159,-0.4986 z"
         id="path4676-97" /><path
         style="fill:#2c3031;fill-opacity:1;stroke:none;stroke-width:1.71369"
         d="m 122.0927,381.52159 c -42.9529,19.4781 -90.6136,99.1648 -53.3784,67.336 -0.618,4.8451 -1.5521,10.2859 10.5625,-8.865 -11.8432,14.2538 0.083,30.3067 10.1853,-0.9431 2.2887,0.363 3.6731,7.9611 8.2991,-10.3739 2.6017,16.1886 12.9092,-3.1306 12.4487,-16.4096 2.8678,5.2955 4.0472,-0.1032 5.4698,-3.9609 5.3006,3.5176 7.8986,-2.2739 8.6764,-14.3348 1.2708,-7.6939 2.3729,-15.0923 -2.2634,-12.4487 z"
         id="path4805" /><path
         style="fill:#2c3031;fill-opacity:1;stroke-width:1.71369"
         d="m 80.9024,480.70009 c 0,-0.283 2.0858,-2.4363 4.6351,-4.7851 3.9766,-3.6639 14.8469,-15.8601 24.656,-27.6633 1.5351,-1.8471 3.0233,-3.1262 3.3072,-2.8424 0.6318,0.6319 -14.5944,18.8895 -22.9812,27.5566 -5.6077,5.7951 -9.6171,9.0196 -9.6171,7.7342 z m 15,-2.2896 c 1.375,-1.6842 6.1,-7.2068 10.5,-12.2725 20.5578,-23.6681 31.5,-43.1257 31.5,-56.0142 0,-5.6943 -0.267,-6.4464 -3.4,-9.5794 -2.5865,-2.5865 -4.2474,-3.4 -6.941,-3.4 -1.9476,0 -3.8615,-0.5185 -4.2531,-1.1522 -1.1495,-1.8599 7.5122,-0.2936 10.5075,1.9 9.6645,7.078 7.239,22.0663 -7.1053,43.907 -6.9617,10.5999 -15.1518,21.0879 -24.985,31.9948 -6.261,6.9447 -10.4083,10.2326 -5.8231,4.6165 z m -10.8467,-15.5161 c 4.7063,-4.5375 10.9396,-11.0625 13.8518,-14.5 2.9121,-3.4375 5.7094,-6.25 6.2162,-6.25 1.5056,0 -14.1487,17.7671 -20.7974,23.6043 -9.3613,8.2187 -8.9054,6.4348 0.7294,-2.8543 z m -2.5553,-9 c 4.9822,-5.0875 10.9928,-11.6306 13.3569,-14.5401 2.3641,-2.9095 4.5299,-5.0584 4.813,-4.7754 1.1969,1.197 -23.8884,28.5655 -26.1824,28.5655 -0.5753,0 3.0303,-4.1625 8.0125,-9.25 z m 32.402,-12.2731 v -3.5231 l -2.4923,1.6331 c -3.3201,2.1754 -5.5077,1.1895 -5.5077,-2.4822 0,-1.9889 -0.557,-3.0654 -1.6999,-3.2855 -1.3463,-0.2592 -1.1113,-0.7129 1.1298,-2.1814 l 2.8296,-1.854 -0.6778,4.5194 c -0.8813,5.8772 0.3966,6.5327 4.9468,2.5375 l 3.6484,-3.2033 -0.6843,4.5631 c -0.9032,6.0228 0.6981,6.9761 4.8914,2.9119 4.4153,-4.2795 5.8143,-3.944 1.616,0.3876 -1.9439,2.0055 -4.3761,3.5 -5.6962,3.5 -1.9692,0 -2.3038,-0.5118 -2.3038,-3.5231 z m 5.8815,-11.7269 c -0.065,-0.6875 -0.038,-1.8426 0.059,-2.5669 0.1401,-1.0388 -0.2736,-1.0754 -1.9597,-0.173 -2.7293,1.4607 -4.981,0.6039 -4.981,-1.8954 0,-1.0715 -0.4846,-2.1096 -1.0768,-2.307 -0.5961,-0.1987 -0.1498,-1.1977 1,-2.2383 2.0716,-1.8747 2.0768,-1.8687 2.0768,2.3943 v 4.2736 l 3.2641,-2.4896 3.2641,-2.4897 -0.3692,3.871 c -0.4214,4.4196 0.028,4.6554 3.5681,1.871 3.6798,-2.8946 5.3404,-2.4553 1.7729,0.469 -3.2506,2.6644 -6.4291,3.2796 -6.6185,1.281 z m 6.7452,-9.4566 c -0.3447,-0.3447 -0.6267,-1.7668 -0.6267,-3.1601 0,-1.9704 -0.2667,-2.2667 -1.2,-1.3333 -2.1231,2.123 -4.8,1.4389 -4.8,-1.2267 0,-1.4888 -0.657,-2.5532 -1.6999,-2.7541 -1.403,-0.2701 -1.2695,-0.6093 0.7639,-1.9416 l 2.4637,-1.6143 -0.3689,3.8683 c -0.4376,4.5882 0.2741,4.7858 4.0857,1.134 l 2.854,-2.7343 -0.6771,4.2343 c -0.7642,4.7793 0.03,5.2402 3.8514,2.2344 3.0343,-2.3868 4.4891,-2.6231 2.6724,-0.4341 -1.7191,2.0714 -6.5262,4.5198 -7.3185,3.7275 z"
         id="path4918" /><path
         style="fill:#2c3031;fill-opacity:1;stroke:none;stroke-width:1.71369"
         d="m 107.1853,501.67278 c 5.23542,-25.65702 19.33992,-47.56118 38.77741,-67.20882 9.48051,-10.15781 12.26715,-18.09924 11.08648,-24.72719 -0.48578,8.11246 -5.40096,16.23069 -12.99189,24.35241 -19.82886,19.82317 -33.77244,41.75793 -36.872,67.5836 z"
         id="path4920" /><path
         style="fill:#bba13b;fill-opacity:1;stroke:none;stroke-width:1.71369"
         d="m 87.2127,325.68299 c -32.3621,-30.6396 5.5752,-68.9691 34.6766,-42.012 1.3965,2.7863 3.5624,5.3951 0.5335,9.2026 -0.1615,4.5064 1.6735,11.0095 -4.1345,9.8695 -5.6792,2.829 -13.1669,1.137 -20.2725,0.4001 -3.5962,2.4511 25.3299,30.5107 39.8781,42.2788 -6.7716,-2.3562 -10.4745,-4.7124 -13.7372,-7.0687 l 1.0669,5.0682 c -8.1288,-7.014 -9.9978,-10.451 -13.4705,-14.8043 l -1.3337,5.735 c -34.7232,-30.9205 -19.8823,-42.6672 -7.0687,-45.0796 l -1.067,-8.0023 c -16.9189,-3.1526 -35.3644,22.1549 -15.071,44.4127 z"
         id="path5435" /><path
         style="fill:#bba13b;fill-opacity:1;stroke:none;stroke-width:1.71369"
         d="m 103.1301,289.19689 c -4.5185,-7.1437 1.2356,-16.6861 13.2031,2.0747 -4.6605,-1.4698 -9.2826,-2.8247 -13.2031,-2.0747 z"
         id="path5437" /><path
         style="fill:#eae2d7;fill-opacity:1;stroke:none;stroke-width:1.71369"
         d="m 103.6174,288.00549 c -1.3152,-7.8944 5.6856,-6.4505 9.6028,1.1337 -3.2576,-0.8882 -6.5184,-1.8048 -9.6028,-1.1337 z"
         id="path5439" /><ellipse
         transform="translate(17.5927,183.85476)"
         style="fill:#000000;fill-opacity:1;fill-rule:evenodd;stroke:#000000;stroke-width:0.342741;stroke-dasharray:none;stroke-opacity:1"
         id="path5441"
         cx="88.792213"
         cy="101.91679"
         rx="1.0336307"
         ry="1.1670024" /><path
         style="fill:#2c3031;fill-opacity:1;stroke:none;stroke-width:1.71369"
         d="m 154.2987,366.22799 c 5.3983,2.0752 6.63,4.8449 6.7352,7.8023 -0.5345,-2.2587 -3.5884,-5.0212 -6.7352,-7.8023 z"
         id="path5443" /><path
         style="fill:#2c3031;fill-opacity:1;stroke:none;stroke-width:1.71369"
         d="m 157.4662,373.06329 c 5.3983,2.0752 6.6301,4.8449 6.7353,7.8023 -0.5346,-2.2587 -3.5884,-5.0212 -6.7353,-7.8023 z"
         id="path5443-2" /><path
         style="fill:#2c3031;fill-opacity:1;stroke:none;stroke-width:1.71369"
         d="m 158.0664,379.19839 c 3.8483,1.5786 4.7264,3.6854 4.8014,5.9351 -0.3811,-1.7181 -2.5581,-3.8195 -4.8014,-5.9351 z"
         id="path5443-1" /><path
         style="fill:#2c3031;fill-opacity:1;stroke:none;stroke-width:1.71369"
         d="m 157.7663,384.46659 c 3.8483,1.5786 4.7264,3.6854 4.8014,5.9351 -0.3811,-1.7182 -2.5581,-3.8196 -4.8014,-5.9351 z"
         id="path5443-1-1" /><path
         style="fill:#2c3031;fill-opacity:1;stroke:none;stroke-width:1.71369"
         d="m 157.2995,388.53439 c 3.8483,1.5786 4.7264,3.6855 4.8014,5.9351 -0.3811,-1.7181 -2.5581,-3.8195 -4.8014,-5.9351 z"
         id="path5443-1-3" /><path
         style="fill:#2c3031;fill-opacity:1;stroke:none;stroke-width:1.71369"
         d="m 152.5108,406.46979 c 2.82,3.0575 2.725,5.338 1.8419,7.4084 0.381,-1.7181 -0.7034,-4.5428 -1.8419,-7.4084 z"
         id="path5443-1-2" /><path
         style="fill:#2c3031;fill-opacity:1;stroke:none;stroke-width:1.71369"
         d="m 149.8357,410.53759 c 2.82,3.0576 2.725,5.3381 1.8418,7.4085 0.3811,-1.7181 -0.7033,-4.5429 -1.8418,-7.4085 z"
         id="path5443-1-2-5" /><path
         style="fill:#2c3031;fill-opacity:1;stroke:none;stroke-width:1.71369"
         d="m 147.9018,416.27259 c 2.82,3.0576 2.725,5.3381 1.8419,7.4085 0.381,-1.7181 -0.7034,-4.5429 -1.8419,-7.4085 z"
         id="path5443-1-2-3" /><path
         style="fill:#2c3031;fill-opacity:1;stroke:none;stroke-width:1.71369"
         d="m 110.2274,346.54349 c 2.7196,-0.2188 3.8638,0.6906 4.5821,1.905 -0.7376,-0.8361 -2.6383,-1.376 -4.5821,-1.905 z"
         id="path5443-1-2-51" /><path
         style="fill:#2c3031;fill-opacity:1;stroke:none;stroke-width:1.71369"
         d="m 113.6632,349.48729 c 2.7196,-0.2188 3.8638,0.6906 4.5822,1.905 -0.7376,-0.8361 -2.6384,-1.376 -4.5822,-1.905 z"
         id="path5443-1-2-51-2" /><path
         style="fill:#2c3031;fill-opacity:1;stroke:none;stroke-width:1.71369"
         d="m 116.5974,353.28839 c 2.7195,-0.2188 3.8638,0.6906 4.5821,1.905 -0.7376,-0.8361 -2.6384,-1.3761 -4.5821,-1.905 z"
         id="path5443-1-2-51-22" /><path
         style="fill:#2c3031;fill-opacity:1;stroke:none;stroke-width:1.71369"
         d="m 119.2648,356.82269 c 2.7196,-0.2188 3.8638,0.6906 4.5822,1.905 -0.7376,-0.8361 -2.6384,-1.376 -4.5822,-1.905 z"
         id="path5443-1-2-51-6" /><path
         style="fill:#2c3031;fill-opacity:1;stroke:none;stroke-width:1.71369"
         d="m 120.932,360.02359 c 2.7195,-0.2188 3.8638,0.6906 4.5821,1.9051 -0.7376,-0.8362 -2.6384,-1.3761 -4.5821,-1.9051 z"
         id="path5443-1-2-51-4" /><path
         style="fill:#2c3031;fill-opacity:1;stroke:none;stroke-width:1.71369"
         d="m 122.9993,363.35789 c 2.7195,-0.2188 3.8637,0.6906 4.5821,1.9051 -0.7376,-0.8362 -2.6384,-1.3761 -4.5821,-1.9051 z"
         id="path5443-1-2-51-0" /><path
         style="fill:#d6b844;fill-opacity:1;stroke:none;stroke-width:1.71369"
         d="m 121.3232,379.56159 c -42.9528,19.478 -90.6135,99.1648 -53.3783,67.3359 -0.6181,4.8451 -1.5521,10.286 10.5625,-8.8649 -11.8433,14.2538 0.083,30.3067 10.1852,-0.9431 2.2888,0.363 3.6731,7.9611 8.2991,-10.3739 2.6017,16.1886 12.9093,-3.1307 12.4487,-16.4096 2.8679,5.2955 4.0472,-0.1032 5.4699,-3.9609 5.3005,3.5175 7.8985,-2.2739 8.6763,-14.3349 1.2708,-7.6938 2.3729,-15.0923 -2.2634,-12.4486 z"
         id="path4805-7" /><path
         style="fill:#2c3031;fill-opacity:1;stroke:none;stroke-width:1.71369"
         d="m 84.9751,432.66689 c -4.0897,6.3475 -7.5582,10.0264 -4.1345,1.7338 -5.904,10.5317 -0.8027,10.0531 4.1345,-1.7338 z"
         id="path5640" /><path
         style="fill:#2c3031;fill-opacity:1;stroke:none;stroke-width:1.71369"
         d="m 96.3712,422.70359 c -4.0897,6.3475 -7.5582,10.0264 -4.1345,1.7338 -5.904,10.5317 -0.8027,10.053 4.1345,-1.7338 z"
         id="path5640-3" /><path
         style="fill:#2c3031;fill-opacity:1;stroke:none;stroke-width:1.71369"
         d="m 89.836,422.03669 c -4.0898,6.3475 -7.5582,10.0264 -4.1345,1.7338 -5.9041,10.5317 -0.8028,10.0531 4.1345,-1.7338 z"
         id="path5640-4" /><path
         style="fill:#2c3031;fill-opacity:1;stroke:none;stroke-width:1.71369"
         d="m 99.8389,413.63429 c -4.0898,6.3475 -7.5582,10.0264 -4.1346,1.7338 -5.904,10.5317 -0.8027,10.0531 4.1346,-1.7338 z"
         id="path5640-0" /><path
         style="fill:#2c3031;fill-opacity:1;stroke:none;stroke-width:1.71369"
         d="m 108.508,405.23189 c -4.0897,6.3475 -7.5582,10.0264 -4.1345,1.7338 -5.904,10.5317 -0.8027,10.053 4.1345,-1.7338 z"
         id="path5640-05" /><rect
         style="fill:#d6b844;fill-opacity:1;fill-rule:evenodd;stroke:none;stroke-width:1.37095;stroke-opacity:1"
         id="rect1"
         width="9.0638924"
         height="12.780062"
         x="3.218411"
         y="483.22952"
         transform="matrix(-0.9921561,0.12500506,0.12500506,0.9921561,0,0)" /><path
         style="fill:#2c3031;fill-opacity:1;fill-rule:evenodd;stroke:none;stroke-width:1.37096;stroke-opacity:1"
         d="m 192.44303,456.72069 -3.01228,1.74106 -1.59914,0.23154 -6.11171,0.0545 0.064,-0.0813 0.94362,-1.71621 5.98113,0.63719 3.52088,-1.62239 z"
         id="path27" /></g><use
       id="use24"
       xlink:href="#layer1"
       transform="translate(-336.04299,-0.7429163)" /><use
       id="use25"
       xlink:href="#layer1"
       transform="translate(-154.75674,286.82586)" /><use
       id="use26"
       xlink:href="#layer1"
       transform="translate(-256.75674,154.82586)" /><use
       id="use27"
       xlink:href="#layer1"
       transform="translate(-76.75674,154.82586)" /><path
       id="shine"
       d="M 1.66,0.963127 V 207.34 c 0,229.66454 239.92,319.6031 239.92,319.6031 0,0 239.92,-89.93856 239.92,-319.6031 V 0.963127 Z"
       style="fill:url(#rg-6);stroke:#000000;stroke-width:2.41218" /></g></svg>
